<svg width="294" height="32" viewBox="0 0 294 32" fill="none" xmlns="http://www.w3.org/2000/svg">
<rect width="294" height="32" rx="8" fill="#EBFF00"/>
<rect width="187" height="31" transform="translate(0 0.5)" fill="#EBFF00"/>
<path d="M12.517 19.5V18.444H13.551V12.856H12.517V11.8H15.597C16.6237 11.8 17.4083 12.0603 17.951 12.581C18.501 13.1017 18.776 13.8863 18.776 14.935V16.376C18.776 17.4247 18.501 18.2093 17.951 18.73C17.4083 19.2433 16.6237 19.5 15.597 19.5H12.517ZM14.75 18.422H15.608C16.2753 18.422 16.7703 18.2533 17.093 17.916C17.4157 17.5787 17.577 17.0763 17.577 16.409V14.891C17.577 14.2163 17.4157 13.714 17.093 13.384C16.7703 13.054 16.2753 12.889 15.608 12.889H14.75V18.422ZM22.6374 19.654C22.0874 19.654 21.6071 19.5403 21.1964 19.313C20.7858 19.0783 20.4631 18.752 20.2284 18.334C20.0011 17.9087 19.8874 17.4173 19.8874 16.86V16.728C19.8874 16.1633 20.0011 15.672 20.2284 15.254C20.4558 14.8287 20.7711 14.5023 21.1744 14.275C21.5851 14.0403 22.0581 13.923 22.5934 13.923C23.1141 13.923 23.5688 14.0403 23.9574 14.275C24.3534 14.5023 24.6614 14.8213 24.8814 15.232C25.1014 15.6427 25.2114 16.123 25.2114 16.673V17.102H21.0424C21.0571 17.5787 21.2148 17.96 21.5154 18.246C21.8234 18.5247 22.2048 18.664 22.6594 18.664C23.0848 18.664 23.4038 18.5687 23.6164 18.378C23.8364 18.1873 24.0051 17.9673 24.1224 17.718L25.0574 18.202C24.9548 18.4073 24.8044 18.6237 24.6064 18.851C24.4158 19.0783 24.1628 19.269 23.8474 19.423C23.5321 19.577 23.1288 19.654 22.6374 19.654ZM21.0534 16.233H24.0564C24.0271 15.8223 23.8804 15.5033 23.6164 15.276C23.3524 15.0413 23.0078 14.924 22.5824 14.924C22.1571 14.924 21.8088 15.0413 21.5374 15.276C21.2734 15.5033 21.1121 15.8223 21.0534 16.233ZM27.6466 19.5L25.8206 14.077H27.0196L28.4606 18.664H28.6366L30.0776 14.077H31.2766L29.4506 19.5H27.6466ZM34.6794 19.654C34.1294 19.654 33.6491 19.5403 33.2384 19.313C32.8278 19.0783 32.5051 18.752 32.2704 18.334C32.0431 17.9087 31.9294 17.4173 31.9294 16.86V16.728C31.9294 16.1633 32.0431 15.672 32.2704 15.254C32.4978 14.8287 32.8131 14.5023 33.2164 14.275C33.6271 14.0403 34.1001 13.923 34.6354 13.923C35.1561 13.923 35.6108 14.0403 35.9994 14.275C36.3954 14.5023 36.7034 14.8213 36.9234 15.232C37.1434 15.6427 37.2534 16.123 37.2534 16.673V17.102H33.0844C33.0991 17.5787 33.2568 17.96 33.5574 18.246C33.8654 18.5247 34.2468 18.664 34.7014 18.664C35.1268 18.664 35.4458 18.5687 35.6584 18.378C35.8784 18.1873 36.0471 17.9673 36.1644 17.718L37.0994 18.202C36.9968 18.4073 36.8464 18.6237 36.6484 18.851C36.4578 19.0783 36.2048 19.269 35.8894 19.423C35.5741 19.577 35.1708 19.654 34.6794 19.654ZM33.0954 16.233H36.0984C36.0691 15.8223 35.9224 15.5033 35.6584 15.276C35.3944 15.0413 35.0498 14.924 34.6244 14.924C34.1991 14.924 33.8508 15.0413 33.5794 15.276C33.3154 15.5033 33.1541 15.8223 33.0954 16.233ZM38.6173 19.5V11.8H39.7503V19.5H38.6173ZM43.9727 19.654C43.43 19.654 42.946 19.544 42.5207 19.324C42.1027 19.0967 41.7727 18.774 41.5307 18.356C41.2887 17.938 41.1677 17.443 41.1677 16.871V16.706C41.1677 16.134 41.2887 15.6427 41.5307 15.232C41.7727 14.814 42.1027 14.4913 42.5207 14.264C42.946 14.0367 43.43 13.923 43.9727 13.923C44.5154 13.923 44.9994 14.0367 45.4247 14.264C45.85 14.4913 46.1837 14.814 46.4257 15.232C46.6677 15.6427 46.7887 16.134 46.7887 16.706V16.871C46.7887 17.443 46.6677 17.938 46.4257 18.356C46.1837 18.774 45.85 19.0967 45.4247 19.324C44.9994 19.544 44.5154 19.654 43.9727 19.654ZM43.9727 18.642C44.4714 18.642 44.8747 18.4843 45.1827 18.169C45.498 17.8463 45.6557 17.4027 45.6557 16.838V16.739C45.6557 16.1743 45.5017 15.7343 45.1937 15.419C44.8857 15.0963 44.4787 14.935 43.9727 14.935C43.4814 14.935 43.078 15.0963 42.7627 15.419C42.4547 15.7343 42.3007 16.1743 42.3007 16.739V16.838C42.3007 17.4027 42.4547 17.8463 42.7627 18.169C43.078 18.4843 43.4814 18.642 43.9727 18.642ZM48.1993 21.7V14.077H49.3103V14.858H49.4863C49.6256 14.616 49.8346 14.3997 50.1133 14.209C50.3993 14.0183 50.8063 13.923 51.3343 13.923C51.7889 13.923 52.2033 14.033 52.5773 14.253C52.9586 14.473 53.2629 14.792 53.4903 15.21C53.7249 15.6207 53.8423 16.1193 53.8423 16.706V16.871C53.8423 17.4577 53.7286 17.96 53.5013 18.378C53.2739 18.7887 52.9696 19.104 52.5883 19.324C52.2069 19.544 51.7889 19.654 51.3343 19.654C50.9823 19.654 50.6853 19.61 50.4433 19.522C50.2013 19.434 50.0069 19.324 49.8603 19.192C49.7136 19.0527 49.5963 18.9097 49.5083 18.763H49.3323V21.7H48.1993ZM51.0043 18.664C51.5029 18.664 51.9099 18.5063 52.2253 18.191C52.5406 17.8757 52.6983 17.4247 52.6983 16.838V16.739C52.6983 16.1597 52.5369 15.7123 52.2143 15.397C51.8989 15.0817 51.4956 14.924 51.0043 14.924C50.5203 14.924 50.1169 15.0817 49.7943 15.397C49.4789 15.7123 49.3213 16.1597 49.3213 16.739V16.838C49.3213 17.4247 49.4789 17.8757 49.7943 18.191C50.1169 18.5063 50.5203 18.664 51.0043 18.664ZM57.7322 19.654C57.1822 19.654 56.7018 19.5403 56.2912 19.313C55.8805 19.0783 55.5578 18.752 55.3232 18.334C55.0958 17.9087 54.9822 17.4173 54.9822 16.86V16.728C54.9822 16.1633 55.0958 15.672 55.3232 15.254C55.5505 14.8287 55.8658 14.5023 56.2692 14.275C56.6798 14.0403 57.1528 13.923 57.6882 13.923C58.2088 13.923 58.6635 14.0403 59.0522 14.275C59.4482 14.5023 59.7562 14.8213 59.9762 15.232C60.1962 15.6427 60.3062 16.123 60.3062 16.673V17.102H56.1372C56.1518 17.5787 56.3095 17.96 56.6102 18.246C56.9182 18.5247 57.2995 18.664 57.7542 18.664C58.1795 18.664 58.4985 18.5687 58.7112 18.378C58.9312 18.1873 59.0998 17.9673 59.2172 17.718L60.1522 18.202C60.0495 18.4073 59.8992 18.6237 59.7012 18.851C59.5105 19.0783 59.2575 19.269 58.9422 19.423C58.6268 19.577 58.2235 19.654 57.7322 19.654ZM56.1482 16.233H59.1512C59.1218 15.8223 58.9752 15.5033 58.7112 15.276C58.4472 15.0413 58.1025 14.924 57.6772 14.924C57.2518 14.924 56.9035 15.0413 56.6322 15.276C56.3682 15.5033 56.2068 15.8223 56.1482 16.233ZM63.914 19.654C63.4667 19.654 63.0523 19.544 62.671 19.324C62.2897 19.104 61.9817 18.7887 61.747 18.378C61.5197 17.96 61.406 17.4577 61.406 16.871V16.706C61.406 16.1267 61.5197 15.628 61.747 15.21C61.9743 14.792 62.2787 14.473 62.66 14.253C63.0413 14.033 63.4593 13.923 63.914 13.923C64.266 13.923 64.5593 13.967 64.794 14.055C65.036 14.143 65.234 14.2567 65.388 14.396C65.542 14.528 65.6593 14.6673 65.74 14.814H65.916V11.8H67.049V19.5H65.938V18.73H65.762C65.6227 18.9647 65.41 19.1773 65.124 19.368C64.8453 19.5587 64.442 19.654 63.914 19.654ZM64.233 18.664C64.7243 18.664 65.1277 18.5063 65.443 18.191C65.7657 17.8757 65.927 17.4247 65.927 16.838V16.739C65.927 16.1597 65.7693 15.7123 65.454 15.397C65.1387 15.0817 64.7317 14.924 64.233 14.924C63.749 14.924 63.3457 15.0817 63.023 15.397C62.7077 15.7123 62.55 16.1597 62.55 16.739V16.838C62.55 17.4247 62.7077 17.8757 63.023 18.191C63.3457 18.5063 63.749 18.664 64.233 18.664ZM73.7646 19.654C73.3172 19.654 72.9029 19.544 72.5216 19.324C72.1402 19.104 71.8322 18.7887 71.5976 18.378C71.3702 17.96 71.2566 17.4577 71.2566 16.871V16.706C71.2566 16.1267 71.3702 15.628 71.5976 15.21C71.8249 14.792 72.1292 14.473 72.5106 14.253C72.8919 14.033 73.3099 13.923 73.7646 13.923C74.1166 13.923 74.4099 13.967 74.6446 14.055C74.8866 14.143 75.0846 14.2567 75.2386 14.396C75.3926 14.528 75.5099 14.6673 75.5906 14.814H75.7666V11.8H76.8996V19.5H75.7886V18.73H75.6126C75.4732 18.9647 75.2606 19.1773 74.9746 19.368C74.6959 19.5587 74.2926 19.654 73.7646 19.654ZM74.0836 18.664C74.5749 18.664 74.9782 18.5063 75.2936 18.191C75.6162 17.8757 75.7776 17.4247 75.7776 16.838V16.739C75.7776 16.1597 75.6199 15.7123 75.3046 15.397C74.9892 15.0817 74.5822 14.924 74.0836 14.924C73.5996 14.924 73.1962 15.0817 72.8736 15.397C72.5582 15.7123 72.4006 16.1597 72.4006 16.739V16.838C72.4006 17.4247 72.5582 17.8757 72.8736 18.191C73.1962 18.5063 73.5996 18.664 74.0836 18.664ZM80.6464 19.599C80.2358 19.599 79.8691 19.5073 79.5464 19.324C79.2238 19.1407 78.9708 18.8803 78.7874 18.543C78.6041 18.2057 78.5124 17.8023 78.5124 17.333V14.077H79.6454V17.256C79.6454 17.7253 79.7628 18.0737 79.9974 18.301C80.2321 18.521 80.5584 18.631 80.9764 18.631C81.4384 18.631 81.8088 18.477 82.0874 18.169C82.3734 17.8537 82.5164 17.4027 82.5164 16.816V14.077H83.6494V19.5H82.5384V18.686H82.3624C82.2598 18.906 82.0764 19.115 81.8124 19.313C81.5484 19.5037 81.1598 19.599 80.6464 19.599ZM85.3243 19.5V14.077H86.4353V14.715H86.6113C86.6993 14.4877 86.8386 14.3227 87.0293 14.22C87.2273 14.11 87.4693 14.055 87.7553 14.055H88.4043V15.078H87.7113C87.3446 15.078 87.0439 15.1807 86.8093 15.386C86.5746 15.584 86.4573 15.892 86.4573 16.31V19.5H85.3243ZM89.5782 19.5V14.077H90.7112V19.5H89.5782ZM90.1502 13.34C89.9302 13.34 89.7432 13.2703 89.5892 13.131C89.4425 12.9843 89.3692 12.7973 89.3692 12.57C89.3692 12.3427 89.4425 12.1593 89.5892 12.02C89.7432 11.8733 89.9302 11.8 90.1502 11.8C90.3775 11.8 90.5645 11.8733 90.7112 12.02C90.8579 12.1593 90.9312 12.3427 90.9312 12.57C90.9312 12.7973 90.8579 12.9843 90.7112 13.131C90.5645 13.2703 90.3775 13.34 90.1502 13.34ZM92.3926 19.5V14.077H93.5036V14.891H93.6796C93.7823 14.671 93.9656 14.4657 94.2296 14.275C94.4936 14.0843 94.886 13.989 95.4066 13.989C95.8173 13.989 96.1803 14.0807 96.4956 14.264C96.8183 14.4473 97.0713 14.7077 97.2546 15.045C97.438 15.375 97.5296 15.7747 97.5296 16.244V19.5H96.3966V16.332C96.3966 15.8627 96.2793 15.518 96.0446 15.298C95.81 15.0707 95.4873 14.957 95.0766 14.957C94.6073 14.957 94.2296 15.111 93.9436 15.419C93.665 15.727 93.5256 16.1743 93.5256 16.761V19.5H92.3926ZM98.8962 16.816V16.651C98.8962 16.079 99.0099 15.5913 99.2372 15.188C99.4719 14.7847 99.7799 14.473 100.161 14.253C100.543 14.033 100.961 13.923 101.415 13.923C101.943 13.923 102.347 14.022 102.625 14.22C102.911 14.418 103.12 14.6307 103.252 14.858H103.428V14.077H104.528V20.611C104.528 20.941 104.429 21.205 104.231 21.403C104.041 21.601 103.777 21.7 103.439 21.7H99.7872V20.71H103.087C103.3 20.71 103.406 20.6 103.406 20.38V18.653H103.23C103.15 18.785 103.036 18.9207 102.889 19.06C102.743 19.1993 102.548 19.313 102.306 19.401C102.072 19.489 101.775 19.533 101.415 19.533C100.961 19.533 100.539 19.4267 100.15 19.214C99.7689 18.994 99.4646 18.6823 99.2372 18.279C99.0099 17.8683 98.8962 17.3807 98.8962 16.816ZM101.723 18.543C102.215 18.543 102.618 18.389 102.933 18.081C103.256 17.7657 103.417 17.333 103.417 16.783V16.684C103.417 16.1193 103.26 15.6867 102.944 15.386C102.629 15.078 102.222 14.924 101.723 14.924C101.239 14.924 100.836 15.078 100.513 15.386C100.198 15.6867 100.04 16.1193 100.04 16.684V16.783C100.04 17.333 100.198 17.7657 100.513 18.081C100.836 18.389 101.239 18.543 101.723 18.543ZM111.585 19.654C111.006 19.654 110.492 19.5513 110.045 19.346C109.598 19.1407 109.246 18.84 108.989 18.444C108.74 18.0407 108.615 17.553 108.615 16.981V16.706H109.792V16.981C109.792 17.5237 109.953 17.9307 110.276 18.202C110.606 18.4733 111.042 18.609 111.585 18.609C112.135 18.609 112.549 18.4953 112.828 18.268C113.107 18.0333 113.246 17.7327 113.246 17.366C113.246 17.124 113.18 16.926 113.048 16.772C112.916 16.618 112.729 16.497 112.487 16.409C112.245 16.3137 111.955 16.2257 111.618 16.145L111.211 16.046C110.72 15.9287 110.291 15.7857 109.924 15.617C109.565 15.441 109.286 15.21 109.088 14.924C108.89 14.638 108.791 14.2713 108.791 13.824C108.791 13.3693 108.901 12.9807 109.121 12.658C109.348 12.3353 109.66 12.086 110.056 11.91C110.452 11.734 110.918 11.646 111.453 11.646C111.988 11.646 112.465 11.7377 112.883 11.921C113.308 12.1043 113.642 12.3757 113.884 12.735C114.126 13.0943 114.247 13.5453 114.247 14.088V14.484H113.07V14.088C113.07 13.758 113 13.4903 112.861 13.285C112.729 13.0797 112.542 12.9293 112.3 12.834C112.058 12.7387 111.776 12.691 111.453 12.691C110.984 12.691 110.617 12.79 110.353 12.988C110.096 13.1787 109.968 13.4463 109.968 13.791C109.968 14.0257 110.023 14.22 110.133 14.374C110.25 14.5207 110.419 14.6417 110.639 14.737C110.859 14.8323 111.134 14.9167 111.464 14.99L111.871 15.089C112.37 15.199 112.81 15.342 113.191 15.518C113.572 15.6867 113.873 15.9177 114.093 16.211C114.313 16.5043 114.423 16.882 114.423 17.344C114.423 17.806 114.306 18.2093 114.071 18.554C113.844 18.8987 113.517 19.17 113.092 19.368C112.667 19.5587 112.164 19.654 111.585 19.654ZM115.703 21.7V14.077H116.814V14.858H116.99C117.13 14.616 117.339 14.3997 117.617 14.209C117.903 14.0183 118.31 13.923 118.838 13.923C119.293 13.923 119.707 14.033 120.081 14.253C120.463 14.473 120.767 14.792 120.994 15.21C121.229 15.6207 121.346 16.1193 121.346 16.706V16.871C121.346 17.4577 121.233 17.96 121.005 18.378C120.778 18.7887 120.474 19.104 120.092 19.324C119.711 19.544 119.293 19.654 118.838 19.654C118.486 19.654 118.189 19.61 117.947 19.522C117.705 19.434 117.511 19.324 117.364 19.192C117.218 19.0527 117.1 18.9097 117.012 18.763H116.836V21.7H115.703ZM118.508 18.664C119.007 18.664 119.414 18.5063 119.729 18.191C120.045 17.8757 120.202 17.4247 120.202 16.838V16.739C120.202 16.1597 120.041 15.7123 119.718 15.397C119.403 15.0817 119 14.924 118.508 14.924C118.024 14.924 117.621 15.0817 117.298 15.397C116.983 15.7123 116.825 16.1597 116.825 16.739V16.838C116.825 17.4247 116.983 17.8757 117.298 18.191C117.621 18.5063 118.024 18.664 118.508 18.664ZM124.433 19.654C124.044 19.654 123.696 19.588 123.388 19.456C123.087 19.324 122.845 19.1297 122.662 18.873C122.486 18.6163 122.398 18.3047 122.398 17.938C122.398 17.564 122.486 17.256 122.662 17.014C122.845 16.7647 123.091 16.5777 123.399 16.453C123.714 16.3283 124.07 16.266 124.466 16.266H126.116V15.914C126.116 15.5987 126.021 15.3457 125.83 15.155C125.639 14.9643 125.346 14.869 124.95 14.869C124.561 14.869 124.264 14.9607 124.059 15.144C123.854 15.3273 123.718 15.5657 123.652 15.859L122.596 15.518C122.684 15.2247 122.823 14.9607 123.014 14.726C123.212 14.484 123.472 14.2897 123.795 14.143C124.118 13.9963 124.506 13.923 124.961 13.923C125.665 13.923 126.219 14.1027 126.622 14.462C127.025 14.8213 127.227 15.331 127.227 15.991V18.224C127.227 18.444 127.33 18.554 127.535 18.554H127.997V19.5H127.15C126.893 19.5 126.684 19.434 126.523 19.302C126.362 19.17 126.281 18.9903 126.281 18.763V18.73H126.116C126.057 18.84 125.969 18.9683 125.852 19.115C125.735 19.2617 125.562 19.39 125.335 19.5C125.108 19.6027 124.807 19.654 124.433 19.654ZM124.598 18.719C125.053 18.719 125.419 18.5907 125.698 18.334C125.977 18.07 126.116 17.7107 126.116 17.256V17.146H124.532C124.231 17.146 123.989 17.212 123.806 17.344C123.623 17.4687 123.531 17.6557 123.531 17.905C123.531 18.1543 123.626 18.3523 123.817 18.499C124.008 18.6457 124.268 18.719 124.598 18.719ZM131.489 19.654C130.968 19.654 130.495 19.544 130.07 19.324C129.652 19.104 129.318 18.785 129.069 18.367C128.827 17.949 128.706 17.4467 128.706 16.86V16.717C128.706 16.1303 128.827 15.6317 129.069 15.221C129.318 14.803 129.652 14.484 130.07 14.264C130.495 14.0367 130.968 13.923 131.489 13.923C132.009 13.923 132.453 14.0183 132.82 14.209C133.186 14.3997 133.48 14.6527 133.7 14.968C133.927 15.2833 134.074 15.6317 134.14 16.013L133.04 16.244C133.003 16.002 132.926 15.782 132.809 15.584C132.691 15.386 132.526 15.2283 132.314 15.111C132.101 14.9937 131.833 14.935 131.511 14.935C131.195 14.935 130.909 15.0083 130.653 15.155C130.403 15.2943 130.205 15.4997 130.059 15.771C129.912 16.035 129.839 16.3577 129.839 16.739V16.838C129.839 17.2193 129.912 17.5457 130.059 17.817C130.205 18.0883 130.403 18.2937 130.653 18.433C130.909 18.5723 131.195 18.642 131.511 18.642C131.987 18.642 132.35 18.521 132.6 18.279C132.849 18.0297 133.007 17.7143 133.073 17.333L134.173 17.586C134.085 17.96 133.927 18.3047 133.7 18.62C133.48 18.9353 133.186 19.1883 132.82 19.379C132.453 19.5623 132.009 19.654 131.489 19.654ZM137.966 19.654C137.416 19.654 136.935 19.5403 136.525 19.313C136.114 19.0783 135.791 18.752 135.557 18.334C135.329 17.9087 135.216 17.4173 135.216 16.86V16.728C135.216 16.1633 135.329 15.672 135.557 15.254C135.784 14.8287 136.099 14.5023 136.503 14.275C136.913 14.0403 137.386 13.923 137.922 13.923C138.442 13.923 138.897 14.0403 139.286 14.275C139.682 14.5023 139.99 14.8213 140.21 15.232C140.43 15.6427 140.54 16.123 140.54 16.673V17.102H136.371C136.385 17.5787 136.543 17.96 136.844 18.246C137.152 18.5247 137.533 18.664 137.988 18.664C138.413 18.664 138.732 18.5687 138.945 18.378C139.165 18.1873 139.333 17.9673 139.451 17.718L140.386 18.202C140.283 18.4073 140.133 18.6237 139.935 18.851C139.744 19.0783 139.491 19.269 139.176 19.423C138.86 19.577 138.457 19.654 137.966 19.654ZM136.382 16.233H139.385C139.355 15.8223 139.209 15.5033 138.945 15.276C138.681 15.0413 138.336 14.924 137.911 14.924C137.485 14.924 137.137 15.0413 136.866 15.276C136.602 15.5033 136.44 15.8223 136.382 16.233ZM143.745 19.5C143.415 19.5 143.151 19.401 142.953 19.203C142.762 19.005 142.667 18.741 142.667 18.411V15.034H141.171V14.077H142.667V12.284H143.8V14.077H145.417V15.034H143.8V18.213C143.8 18.433 143.903 18.543 144.108 18.543H145.241V19.5H143.745ZM146.748 19.5V14.077H147.881V19.5H146.748ZM147.32 13.34C147.1 13.34 146.913 13.2703 146.759 13.131C146.612 12.9843 146.539 12.7973 146.539 12.57C146.539 12.3427 146.612 12.1593 146.759 12.02C146.913 11.8733 147.1 11.8 147.32 11.8C147.547 11.8 147.734 11.8733 147.881 12.02C148.028 12.1593 148.101 12.3427 148.101 12.57C148.101 12.7973 148.028 12.9843 147.881 13.131C147.734 13.2703 147.547 13.34 147.32 13.34ZM149.563 19.5V14.077H150.674V14.715H150.85C150.952 14.5243 151.117 14.3557 151.345 14.209C151.572 14.0623 151.88 13.989 152.269 13.989C152.672 13.989 152.995 14.0733 153.237 14.242C153.486 14.4033 153.673 14.6123 153.798 14.869H153.974C154.098 14.6197 154.278 14.4107 154.513 14.242C154.755 14.0733 155.096 13.989 155.536 13.989C155.888 13.989 156.199 14.0623 156.471 14.209C156.742 14.3483 156.958 14.561 157.12 14.847C157.281 15.1257 157.362 15.474 157.362 15.892V19.5H156.229V15.98C156.229 15.65 156.137 15.397 155.954 15.221C155.778 15.0377 155.525 14.946 155.195 14.946C154.843 14.946 154.56 15.0597 154.348 15.287C154.135 15.5143 154.029 15.8407 154.029 16.266V19.5H152.896V15.98C152.896 15.65 152.804 15.397 152.621 15.221C152.445 15.0377 152.192 14.946 151.862 14.946C151.51 14.946 151.227 15.0597 151.015 15.287C150.802 15.5143 150.696 15.8407 150.696 16.266V19.5H149.563ZM161.48 19.654C160.93 19.654 160.45 19.5403 160.039 19.313C159.629 19.0783 159.306 18.752 159.071 18.334C158.844 17.9087 158.73 17.4173 158.73 16.86V16.728C158.73 16.1633 158.844 15.672 159.071 15.254C159.299 14.8287 159.614 14.5023 160.017 14.275C160.428 14.0403 160.901 13.923 161.436 13.923C161.957 13.923 162.412 14.0403 162.8 14.275C163.196 14.5023 163.504 14.8213 163.724 15.232C163.944 15.6427 164.054 16.123 164.054 16.673V17.102H159.885C159.9 17.5787 160.058 17.96 160.358 18.246C160.666 18.5247 161.048 18.664 161.502 18.664C161.928 18.664 162.247 18.5687 162.459 18.378C162.679 18.1873 162.848 17.9673 162.965 17.718L163.9 18.202C163.798 18.4073 163.647 18.6237 163.449 18.851C163.259 19.0783 163.006 19.269 162.69 19.423C162.375 19.577 161.972 19.654 161.48 19.654ZM159.896 16.233H162.899C162.87 15.8223 162.723 15.5033 162.459 15.276C162.195 15.0413 161.851 14.924 161.425 14.924C161 14.924 160.652 15.0413 160.38 15.276C160.116 15.5033 159.955 15.8223 159.896 16.233ZM173.194 21.7C172.174 21.7 171.287 21.502 170.532 21.106C169.784 20.7173 169.204 20.16 168.794 19.434C168.383 18.708 168.178 17.8353 168.178 16.816V16.563C168.178 15.551 168.376 14.682 168.772 13.956C169.168 13.23 169.729 12.6727 170.455 12.284C171.188 11.8953 172.046 11.701 173.029 11.701H173.26C174.184 11.701 174.99 11.8917 175.68 12.273C176.369 12.647 176.904 13.1787 177.286 13.868C177.667 14.55 177.858 15.3567 177.858 16.288V16.893C177.858 17.7437 177.693 18.3927 177.363 18.84C177.04 19.28 176.567 19.5 175.944 19.5H175.438C175.115 19.5 174.869 19.434 174.701 19.302C174.532 19.1627 174.448 18.9757 174.448 18.741V18.675H174.272C174.213 18.829 174.121 18.9793 173.997 19.126C173.879 19.2653 173.722 19.379 173.524 19.467C173.333 19.555 173.084 19.599 172.776 19.599C172.328 19.599 171.932 19.478 171.588 19.236C171.25 18.994 170.986 18.6713 170.796 18.268C170.612 17.8573 170.521 17.3953 170.521 16.882V16.695C170.521 16.1817 170.612 15.7233 170.796 15.32C170.979 14.9093 171.232 14.5867 171.555 14.352C171.885 14.11 172.266 13.989 172.699 13.989C172.999 13.989 173.245 14.0293 173.436 14.11C173.634 14.1833 173.791 14.2823 173.909 14.407C174.026 14.5317 174.121 14.6637 174.195 14.803H174.371V14.088H175.471V18.169C175.471 18.279 175.493 18.3633 175.537 18.422C175.588 18.4733 175.669 18.499 175.779 18.499H175.867C176.182 18.499 176.406 18.3707 176.538 18.114C176.677 17.85 176.747 17.4357 176.747 16.871V16.31C176.747 15.562 176.611 14.9203 176.34 14.385C176.068 13.8497 175.672 13.439 175.152 13.153C174.638 12.867 174 12.724 173.238 12.724H173.062C172.299 12.724 171.632 12.8707 171.06 13.164C170.495 13.4573 170.059 13.8937 169.751 14.473C169.443 15.045 169.289 15.7563 169.289 16.607V16.783C169.289 17.6263 169.45 18.3377 169.773 18.917C170.095 19.4963 170.554 19.9327 171.148 20.226C171.742 20.5267 172.446 20.677 173.26 20.677H175.482V21.7H173.194ZM172.996 18.609C173.406 18.609 173.736 18.455 173.986 18.147C174.242 17.8317 174.371 17.399 174.371 16.849V16.728C174.371 16.178 174.242 15.749 173.986 15.441C173.736 15.1257 173.406 14.968 172.996 14.968C172.585 14.968 172.255 15.1257 172.006 15.441C171.764 15.7563 171.643 16.1853 171.643 16.728V16.86C171.643 17.4027 171.764 17.8317 172.006 18.147C172.255 18.455 172.585 18.609 172.996 18.609Z" fill="black"/>
<rect x="187" y="4" width="103" height="24" rx="6" fill="black"/>
<path fill-rule="evenodd" clip-rule="evenodd" d="M202.642 12.3838L202.44 7L202.035 7.04063L202.642 12.3838ZM200.521 7.38672L201.714 11.9985L200.137 7.50862L200.521 7.38672ZM197.93 7.40625L199.891 11.0225L197.566 7.60941L197.93 7.40625ZM196.858 9.27344L201.791 14.7791L196.555 9.53755L196.858 9.27344ZM204.826 13.9868L203.148 15.6933L204.503 13.7227L204.826 13.9868ZM200.802 19.6163L197.75 24.4922L198.093 24.6954L200.802 19.6163ZM197.891 20.9988L199.852 19.2109L198.174 21.2629L197.891 20.9988ZM198.822 18.6016L195.305 20.6129L195.527 20.9582L198.822 18.6016ZM204.884 18.0534L203.227 16.2656L205.147 17.7487L204.884 18.0534ZM205.531 18.375L209.918 22.682L210.201 22.3773L205.531 18.375ZM199.992 17.4025L202.196 16.3867L200.194 17.7682L199.992 17.4025ZM201.692 15.6355L195.546 13.7461L195.445 14.1321L201.692 15.6355ZM195.202 11.5898L198.922 13.8246L195 11.9352L195.202 11.5898ZM203.105 20.1445V24.9391L203.51 24.9188L203.105 20.1445ZM201.832 18.437L202.681 16.6289L202.216 18.5792L201.832 18.437ZM201.611 19.6569L200.843 21.2619L201.227 21.3838L201.611 19.6569ZM199.648 24.6325L200.861 21.8086L200.033 24.7747L199.648 24.6325ZM198.781 19.4335L195 22.3183L195.263 22.6231L198.781 19.4335ZM197.082 15.8594L199.407 16.0219L197.102 16.2657L197.082 15.8594ZM206.363 16.2039L209.153 16.5899L209.173 16.1836L206.363 16.2039ZM208.524 24.0857L206.441 20.8555L208.847 23.8419L208.524 24.0857ZM203.309 16.8939L206.584 25L206.948 24.8375L203.309 16.8939ZM204.36 23.5796L203.754 19.8008L204.745 23.478L204.36 23.5796ZM202.298 19.9805L201.469 23.9218L201.873 24.003L202.298 19.9805ZM196.395 24.35L199.326 20.7744L196.718 24.5938L196.395 24.35ZM206.141 17.8086L210.568 21.0998L210.791 20.7747L206.141 17.8086ZM202.642 15.0434L202.076 12.5039L201.691 12.6258L202.642 15.0434ZM203.551 13.2563L203.086 14.9628L203.147 13.1953L203.551 13.2563ZM203.551 11.9374L204.319 8.36173L203.915 8.30078L203.551 11.9374ZM208.058 7.48832L205.188 12.0594L207.694 7.28516L208.058 7.48832ZM205.898 12.8304L209.861 8.90942L209.558 8.625L205.898 12.8304ZM206.421 7.34534L204.258 12.4853L206.057 7.20312L206.421 7.34534ZM204.48 15.533L206.886 15.086L206.765 14.6797L204.48 15.533ZM208.382 18.2947L206.219 17.2383L208.523 17.9087L208.382 18.2947ZM209.414 18.457L210.546 19.1071L210.688 18.7211L209.414 18.457ZM210.767 10.6376L207.027 13.299L210.525 10.3125L210.767 10.6376ZM207.816 13.5432L210.627 12.3852L210.445 12.0195L207.816 13.5432Z" fill="white"/>
<path d="M220.08 19.654C219.413 19.654 218.848 19.5 218.386 19.192C217.931 18.884 217.656 18.3963 217.561 17.729L218.386 17.542C218.445 17.894 218.555 18.1727 218.716 18.378C218.877 18.576 219.075 18.719 219.31 18.807C219.552 18.8877 219.809 18.928 220.08 18.928C220.483 18.928 220.802 18.8473 221.037 18.686C221.272 18.5247 221.389 18.3083 221.389 18.037C221.389 17.7583 221.275 17.564 221.048 17.454C220.828 17.3367 220.524 17.2413 220.135 17.168L219.684 17.091C219.339 17.0323 219.024 16.9407 218.738 16.816C218.452 16.6913 218.225 16.5227 218.056 16.31C217.887 16.0973 217.803 15.8297 217.803 15.507C217.803 15.023 217.99 14.6453 218.364 14.374C218.738 14.1027 219.233 13.967 219.849 13.967C220.458 13.967 220.949 14.1063 221.323 14.385C221.704 14.6563 221.95 15.0413 222.06 15.54L221.246 15.749C221.18 15.3603 221.022 15.089 220.773 14.935C220.524 14.7737 220.216 14.693 219.849 14.693C219.482 14.693 219.193 14.7627 218.98 14.902C218.767 15.034 218.661 15.232 218.661 15.496C218.661 15.7527 218.76 15.9433 218.958 16.068C219.163 16.1853 219.435 16.2733 219.772 16.332L220.223 16.409C220.604 16.475 220.945 16.5667 221.246 16.684C221.554 16.794 221.796 16.9553 221.972 17.168C222.155 17.3807 222.247 17.6593 222.247 18.004C222.247 18.532 222.049 18.939 221.653 19.225C221.264 19.511 220.74 19.654 220.08 19.654ZM223.714 21.7V14.121H224.561V15.012H224.715C224.854 14.7407 225.078 14.4987 225.386 14.286C225.701 14.0733 226.137 13.967 226.695 13.967C227.157 13.967 227.578 14.0807 227.96 14.308C228.348 14.528 228.656 14.8433 228.884 15.254C229.118 15.6647 229.236 16.1597 229.236 16.739V16.882C229.236 17.454 229.122 17.949 228.895 18.367C228.667 18.785 228.359 19.104 227.971 19.324C227.589 19.544 227.164 19.654 226.695 19.654C226.321 19.654 226.002 19.6027 225.738 19.5C225.481 19.4047 225.272 19.28 225.111 19.126C224.949 18.972 224.825 18.8143 224.737 18.653H224.583V21.7H223.714ZM226.464 18.884C227.021 18.884 227.472 18.708 227.817 18.356C228.169 17.9967 228.345 17.498 228.345 16.86V16.761C228.345 16.123 228.169 15.628 227.817 15.276C227.472 14.9167 227.021 14.737 226.464 14.737C225.914 14.737 225.459 14.9167 225.1 15.276C224.748 15.628 224.572 16.123 224.572 16.761V16.86C224.572 17.498 224.748 17.9967 225.1 18.356C225.459 18.708 225.914 18.884 226.464 18.884ZM232.443 19.654C232.069 19.654 231.728 19.588 231.42 19.456C231.112 19.324 230.87 19.1333 230.694 18.884C230.518 18.6347 230.43 18.3303 230.43 17.971C230.43 17.6043 230.518 17.3037 230.694 17.069C230.87 16.827 231.112 16.6473 231.42 16.53C231.728 16.4053 232.073 16.343 232.454 16.343H234.269V15.947C234.269 15.5657 234.155 15.265 233.928 15.045C233.708 14.825 233.378 14.715 232.938 14.715C232.505 14.715 232.168 14.8213 231.926 15.034C231.684 15.2393 231.519 15.518 231.431 15.87L230.617 15.606C230.705 15.3053 230.844 15.034 231.035 14.792C231.226 14.5427 231.479 14.3447 231.794 14.198C232.117 14.044 232.502 13.967 232.949 13.967C233.638 13.967 234.174 14.1467 234.555 14.506C234.936 14.858 235.127 15.3567 235.127 16.002V18.433C235.127 18.653 235.23 18.763 235.435 18.763H235.93V19.5H235.171C234.929 19.5 234.735 19.434 234.588 19.302C234.441 19.1627 234.368 18.9793 234.368 18.752V18.697H234.236C234.155 18.8363 234.045 18.983 233.906 19.137C233.774 19.2837 233.591 19.4047 233.356 19.5C233.121 19.6027 232.817 19.654 232.443 19.654ZM232.542 18.906C233.055 18.906 233.47 18.7557 233.785 18.455C234.108 18.147 234.269 17.718 234.269 17.168V17.047H232.487C232.142 17.047 231.856 17.124 231.629 17.278C231.409 17.4247 231.299 17.6483 231.299 17.949C231.299 18.2497 231.413 18.4843 231.64 18.653C231.875 18.8217 232.175 18.906 232.542 18.906ZM239.445 19.654C238.924 19.654 238.455 19.544 238.037 19.324C237.626 19.0967 237.3 18.774 237.058 18.356C236.823 17.938 236.706 17.443 236.706 16.871V16.75C236.706 16.1707 236.823 15.6757 237.058 15.265C237.3 14.847 237.626 14.528 238.037 14.308C238.455 14.0807 238.924 13.967 239.445 13.967C239.958 13.967 240.394 14.0623 240.754 14.253C241.12 14.4437 241.406 14.6967 241.612 15.012C241.824 15.3273 241.96 15.6647 242.019 16.024L241.172 16.2C241.135 15.936 241.047 15.694 240.908 15.474C240.776 15.254 240.589 15.078 240.347 14.946C240.105 14.814 239.808 14.748 239.456 14.748C239.096 14.748 238.774 14.8287 238.488 14.99C238.209 15.1513 237.985 15.3823 237.817 15.683C237.655 15.9837 237.575 16.343 237.575 16.761V16.86C237.575 17.278 237.655 17.6373 237.817 17.938C237.985 18.2387 238.209 18.4697 238.488 18.631C238.774 18.7923 239.096 18.873 239.456 18.873C239.991 18.873 240.398 18.7337 240.677 18.455C240.963 18.1763 241.139 17.8317 241.205 17.421L242.063 17.608C241.982 17.96 241.835 18.2937 241.623 18.609C241.41 18.9243 241.12 19.1773 240.754 19.368C240.394 19.5587 239.958 19.654 239.445 19.654ZM246.008 19.654C245.465 19.654 244.989 19.5403 244.578 19.313C244.167 19.0783 243.848 18.752 243.621 18.334C243.394 17.916 243.28 17.432 243.28 16.882V16.75C243.28 16.1927 243.394 15.705 243.621 15.287C243.848 14.869 244.164 14.5463 244.567 14.319C244.97 14.0843 245.432 13.967 245.953 13.967C246.459 13.967 246.906 14.077 247.295 14.297C247.684 14.5097 247.988 14.8177 248.208 15.221C248.428 15.6243 248.538 16.0973 248.538 16.64V17.036H244.149C244.171 17.6153 244.358 18.07 244.71 18.4C245.062 18.7227 245.502 18.884 246.03 18.884C246.492 18.884 246.848 18.7777 247.097 18.565C247.346 18.3523 247.537 18.0993 247.669 17.806L248.417 18.169C248.307 18.3963 248.153 18.6237 247.955 18.851C247.764 19.0783 247.511 19.269 247.196 19.423C246.888 19.577 246.492 19.654 246.008 19.654ZM244.16 16.321H247.658C247.629 15.8223 247.456 15.4337 247.141 15.155C246.833 14.8763 246.437 14.737 245.953 14.737C245.462 14.737 245.058 14.8763 244.743 15.155C244.428 15.4337 244.233 15.8223 244.16 16.321ZM251.819 19.5C251.511 19.5 251.272 19.4157 251.104 19.247C250.942 19.0783 250.862 18.8473 250.862 18.554V14.88H249.245V14.121H250.862V12.207H251.731V14.121H253.491V14.88H251.731V18.422C251.731 18.642 251.837 18.752 252.05 18.752H253.249V19.5H251.819ZM257.169 19.654C256.626 19.654 256.15 19.5403 255.739 19.313C255.328 19.0783 255.009 18.752 254.782 18.334C254.555 17.916 254.441 17.432 254.441 16.882V16.75C254.441 16.1927 254.555 15.705 254.782 15.287C255.009 14.869 255.325 14.5463 255.728 14.319C256.131 14.0843 256.593 13.967 257.114 13.967C257.62 13.967 258.067 14.077 258.456 14.297C258.845 14.5097 259.149 14.8177 259.369 15.221C259.589 15.6243 259.699 16.0973 259.699 16.64V17.036H255.31C255.332 17.6153 255.519 18.07 255.871 18.4C256.223 18.7227 256.663 18.884 257.191 18.884C257.653 18.884 258.009 18.7777 258.258 18.565C258.507 18.3523 258.698 18.0993 258.83 17.806L259.578 18.169C259.468 18.3963 259.314 18.6237 259.116 18.851C258.925 19.0783 258.672 19.269 258.357 19.423C258.049 19.577 257.653 19.654 257.169 19.654ZM255.321 16.321H258.819C258.79 15.8223 258.617 15.4337 258.302 15.155C257.994 14.8763 257.598 14.737 257.114 14.737C256.623 14.737 256.219 14.8763 255.904 15.155C255.589 15.4337 255.394 15.8223 255.321 16.321ZM262.865 19.654C262.491 19.654 262.15 19.588 261.842 19.456C261.534 19.324 261.292 19.1333 261.116 18.884C260.94 18.6347 260.852 18.3303 260.852 17.971C260.852 17.6043 260.94 17.3037 261.116 17.069C261.292 16.827 261.534 16.6473 261.842 16.53C262.15 16.4053 262.494 16.343 262.876 16.343H264.691V15.947C264.691 15.5657 264.577 15.265 264.35 15.045C264.13 14.825 263.8 14.715 263.36 14.715C262.927 14.715 262.59 14.8213 262.348 15.034C262.106 15.2393 261.941 15.518 261.853 15.87L261.039 15.606C261.127 15.3053 261.266 15.034 261.457 14.792C261.647 14.5427 261.9 14.3447 262.216 14.198C262.538 14.044 262.923 13.967 263.371 13.967C264.06 13.967 264.595 14.1467 264.977 14.506C265.358 14.858 265.549 15.3567 265.549 16.002V18.433C265.549 18.653 265.651 18.763 265.857 18.763H266.352V19.5H265.593C265.351 19.5 265.156 19.434 265.01 19.302C264.863 19.1627 264.79 18.9793 264.79 18.752V18.697H264.658C264.577 18.8363 264.467 18.983 264.328 19.137C264.196 19.2837 264.012 19.4047 263.778 19.5C263.543 19.6027 263.239 19.654 262.865 19.654ZM262.964 18.906C263.477 18.906 263.891 18.7557 264.207 18.455C264.529 18.147 264.691 17.718 264.691 17.168V17.047H262.909C262.564 17.047 262.278 17.124 262.051 17.278C261.831 17.4247 261.721 17.6483 261.721 17.949C261.721 18.2497 261.834 18.4843 262.062 18.653C262.296 18.8217 262.597 18.906 262.964 18.906ZM267.542 19.5V14.121H268.389V14.792H268.543C268.646 14.6013 268.814 14.4253 269.049 14.264C269.284 14.1027 269.614 14.022 270.039 14.022C270.457 14.022 270.794 14.1137 271.051 14.297C271.315 14.4803 271.506 14.704 271.623 14.968H271.777C271.902 14.704 272.089 14.4803 272.338 14.297C272.595 14.1137 272.95 14.022 273.405 14.022C273.764 14.022 274.08 14.0953 274.351 14.242C274.622 14.3887 274.835 14.6013 274.989 14.88C275.15 15.1513 275.231 15.4777 275.231 15.859V19.5H274.362V15.936C274.362 15.5767 274.256 15.2943 274.043 15.089C273.838 14.8763 273.548 14.77 273.174 14.77C272.778 14.77 272.452 14.8983 272.195 15.155C271.946 15.4117 271.821 15.782 271.821 16.266V19.5H270.952V15.936C270.952 15.5767 270.846 15.2943 270.633 15.089C270.428 14.8763 270.138 14.77 269.764 14.77C269.368 14.77 269.042 14.8983 268.785 15.155C268.536 15.4117 268.411 15.782 268.411 16.266V19.5H267.542ZM279.173 19.654C278.505 19.654 277.941 19.5 277.479 19.192C277.024 18.884 276.749 18.3963 276.654 17.729L277.479 17.542C277.537 17.894 277.647 18.1727 277.809 18.378C277.97 18.576 278.168 18.719 278.403 18.807C278.645 18.8877 278.901 18.928 279.173 18.928C279.576 18.928 279.895 18.8473 280.13 18.686C280.364 18.5247 280.482 18.3083 280.482 18.037C280.482 17.7583 280.368 17.564 280.141 17.454C279.921 17.3367 279.616 17.2413 279.228 17.168L278.777 17.091C278.432 17.0323 278.117 16.9407 277.831 16.816C277.545 16.6913 277.317 16.5227 277.149 16.31C276.98 16.0973 276.896 15.8297 276.896 15.507C276.896 15.023 277.083 14.6453 277.457 14.374C277.831 14.1027 278.326 13.967 278.942 13.967C279.55 13.967 280.042 14.1063 280.416 14.385C280.797 14.6563 281.043 15.0413 281.153 15.54L280.339 15.749C280.273 15.3603 280.115 15.089 279.866 14.935C279.616 14.7737 279.308 14.693 278.942 14.693C278.575 14.693 278.285 14.7627 278.073 14.902C277.86 15.034 277.754 15.232 277.754 15.496C277.754 15.7527 277.853 15.9433 278.051 16.068C278.256 16.1853 278.527 16.2733 278.865 16.332L279.316 16.409C279.697 16.475 280.038 16.5667 280.339 16.684C280.647 16.794 280.889 16.9553 281.065 17.168C281.248 17.3807 281.34 17.6593 281.34 18.004C281.34 18.532 281.142 18.939 280.746 19.225C280.357 19.511 279.833 19.654 279.173 19.654Z" fill="white"/>
</svg>
