<svg width="197" height="32" viewBox="0 0 197 32" fill="none" xmlns="http://www.w3.org/2000/svg">
<rect width="197" height="32" rx="8" fill="#EBFF00"/>
<path d="M12.517 19.5V18.444H13.551V12.856H12.517V11.8H15.597C16.6237 11.8 17.4083 12.0603 17.951 12.581C18.501 13.1017 18.776 13.8863 18.776 14.935V16.376C18.776 17.4247 18.501 18.2093 17.951 18.73C17.4083 19.2433 16.6237 19.5 15.597 19.5H12.517ZM14.75 18.422H15.608C16.2753 18.422 16.7703 18.2533 17.093 17.916C17.4157 17.5787 17.577 17.0763 17.577 16.409V14.891C17.577 14.2163 17.4157 13.714 17.093 13.384C16.7703 13.054 16.2753 12.889 15.608 12.889H14.75V18.422ZM22.6374 19.654C22.0874 19.654 21.6071 19.5403 21.1964 19.313C20.7858 19.0783 20.4631 18.752 20.2284 18.334C20.0011 17.9087 19.8874 17.4173 19.8874 16.86V16.728C19.8874 16.1633 20.0011 15.672 20.2284 15.254C20.4558 14.8287 20.7711 14.5023 21.1744 14.275C21.5851 14.0403 22.0581 13.923 22.5934 13.923C23.1141 13.923 23.5688 14.0403 23.9574 14.275C24.3534 14.5023 24.6614 14.8213 24.8814 15.232C25.1014 15.6427 25.2114 16.123 25.2114 16.673V17.102H21.0424C21.0571 17.5787 21.2148 17.96 21.5154 18.246C21.8234 18.5247 22.2048 18.664 22.6594 18.664C23.0848 18.664 23.4038 18.5687 23.6164 18.378C23.8364 18.1873 24.0051 17.9673 24.1224 17.718L25.0574 18.202C24.9548 18.4073 24.8044 18.6237 24.6064 18.851C24.4158 19.0783 24.1628 19.269 23.8474 19.423C23.5321 19.577 23.1288 19.654 22.6374 19.654ZM21.0534 16.233H24.0564C24.0271 15.8223 23.8804 15.5033 23.6164 15.276C23.3524 15.0413 23.0078 14.924 22.5824 14.924C22.1571 14.924 21.8088 15.0413 21.5374 15.276C21.2734 15.5033 21.1121 15.8223 21.0534 16.233ZM27.6466 19.5L25.8206 14.077H27.0196L28.4606 18.664H28.6366L30.0776 14.077H31.2766L29.4506 19.5H27.6466ZM34.6794 19.654C34.1294 19.654 33.6491 19.5403 33.2384 19.313C32.8278 19.0783 32.5051 18.752 32.2704 18.334C32.0431 17.9087 31.9294 17.4173 31.9294 16.86V16.728C31.9294 16.1633 32.0431 15.672 32.2704 15.254C32.4978 14.8287 32.8131 14.5023 33.2164 14.275C33.6271 14.0403 34.1001 13.923 34.6354 13.923C35.1561 13.923 35.6108 14.0403 35.9994 14.275C36.3954 14.5023 36.7034 14.8213 36.9234 15.232C37.1434 15.6427 37.2534 16.123 37.2534 16.673V17.102H33.0844C33.0991 17.5787 33.2568 17.96 33.5574 18.246C33.8654 18.5247 34.2468 18.664 34.7014 18.664C35.1268 18.664 35.4458 18.5687 35.6584 18.378C35.8784 18.1873 36.0471 17.9673 36.1644 17.718L37.0994 18.202C36.9968 18.4073 36.8464 18.6237 36.6484 18.851C36.4578 19.0783 36.2048 19.269 35.8894 19.423C35.5741 19.577 35.1708 19.654 34.6794 19.654ZM33.0954 16.233H36.0984C36.0691 15.8223 35.9224 15.5033 35.6584 15.276C35.3944 15.0413 35.0498 14.924 34.6244 14.924C34.1991 14.924 33.8508 15.0413 33.5794 15.276C33.3154 15.5033 33.1541 15.8223 33.0954 16.233ZM38.6173 19.5V11.8H39.7503V19.5H38.6173ZM43.9727 19.654C43.43 19.654 42.946 19.544 42.5207 19.324C42.1027 19.0967 41.7727 18.774 41.5307 18.356C41.2887 17.938 41.1677 17.443 41.1677 16.871V16.706C41.1677 16.134 41.2887 15.6427 41.5307 15.232C41.7727 14.814 42.1027 14.4913 42.5207 14.264C42.946 14.0367 43.43 13.923 43.9727 13.923C44.5154 13.923 44.9994 14.0367 45.4247 14.264C45.85 14.4913 46.1837 14.814 46.4257 15.232C46.6677 15.6427 46.7887 16.134 46.7887 16.706V16.871C46.7887 17.443 46.6677 17.938 46.4257 18.356C46.1837 18.774 45.85 19.0967 45.4247 19.324C44.9994 19.544 44.5154 19.654 43.9727 19.654ZM43.9727 18.642C44.4714 18.642 44.8747 18.4843 45.1827 18.169C45.498 17.8463 45.6557 17.4027 45.6557 16.838V16.739C45.6557 16.1743 45.5017 15.7343 45.1937 15.419C44.8857 15.0963 44.4787 14.935 43.9727 14.935C43.4814 14.935 43.078 15.0963 42.7627 15.419C42.4547 15.7343 42.3007 16.1743 42.3007 16.739V16.838C42.3007 17.4027 42.4547 17.8463 42.7627 18.169C43.078 18.4843 43.4814 18.642 43.9727 18.642ZM48.1993 21.7V14.077H49.3103V14.858H49.4863C49.6256 14.616 49.8346 14.3997 50.1133 14.209C50.3993 14.0183 50.8063 13.923 51.3343 13.923C51.7889 13.923 52.2033 14.033 52.5773 14.253C52.9586 14.473 53.2629 14.792 53.4903 15.21C53.7249 15.6207 53.8423 16.1193 53.8423 16.706V16.871C53.8423 17.4577 53.7286 17.96 53.5013 18.378C53.2739 18.7887 52.9696 19.104 52.5883 19.324C52.2069 19.544 51.7889 19.654 51.3343 19.654C50.9823 19.654 50.6853 19.61 50.4433 19.522C50.2013 19.434 50.0069 19.324 49.8603 19.192C49.7136 19.0527 49.5963 18.9097 49.5083 18.763H49.3323V21.7H48.1993ZM51.0043 18.664C51.5029 18.664 51.9099 18.5063 52.2253 18.191C52.5406 17.8757 52.6983 17.4247 52.6983 16.838V16.739C52.6983 16.1597 52.5369 15.7123 52.2143 15.397C51.8989 15.0817 51.4956 14.924 51.0043 14.924C50.5203 14.924 50.1169 15.0817 49.7943 15.397C49.4789 15.7123 49.3213 16.1597 49.3213 16.739V16.838C49.3213 17.4247 49.4789 17.8757 49.7943 18.191C50.1169 18.5063 50.5203 18.664 51.0043 18.664ZM57.7322 19.654C57.1822 19.654 56.7018 19.5403 56.2912 19.313C55.8805 19.0783 55.5578 18.752 55.3232 18.334C55.0958 17.9087 54.9822 17.4173 54.9822 16.86V16.728C54.9822 16.1633 55.0958 15.672 55.3232 15.254C55.5505 14.8287 55.8658 14.5023 56.2692 14.275C56.6798 14.0403 57.1528 13.923 57.6882 13.923C58.2088 13.923 58.6635 14.0403 59.0522 14.275C59.4482 14.5023 59.7562 14.8213 59.9762 15.232C60.1962 15.6427 60.3062 16.123 60.3062 16.673V17.102H56.1372C56.1518 17.5787 56.3095 17.96 56.6102 18.246C56.9182 18.5247 57.2995 18.664 57.7542 18.664C58.1795 18.664 58.4985 18.5687 58.7112 18.378C58.9312 18.1873 59.0998 17.9673 59.2172 17.718L60.1522 18.202C60.0495 18.4073 59.8992 18.6237 59.7012 18.851C59.5105 19.0783 59.2575 19.269 58.9422 19.423C58.6268 19.577 58.2235 19.654 57.7322 19.654ZM56.1482 16.233H59.1512C59.1218 15.8223 58.9752 15.5033 58.7112 15.276C58.4472 15.0413 58.1025 14.924 57.6772 14.924C57.2518 14.924 56.9035 15.0413 56.6322 15.276C56.3682 15.5033 56.2068 15.8223 56.1482 16.233ZM63.914 19.654C63.4667 19.654 63.0523 19.544 62.671 19.324C62.2897 19.104 61.9817 18.7887 61.747 18.378C61.5197 17.96 61.406 17.4577 61.406 16.871V16.706C61.406 16.1267 61.5197 15.628 61.747 15.21C61.9743 14.792 62.2787 14.473 62.66 14.253C63.0413 14.033 63.4593 13.923 63.914 13.923C64.266 13.923 64.5593 13.967 64.794 14.055C65.036 14.143 65.234 14.2567 65.388 14.396C65.542 14.528 65.6593 14.6673 65.74 14.814H65.916V11.8H67.049V19.5H65.938V18.73H65.762C65.6227 18.9647 65.41 19.1773 65.124 19.368C64.8453 19.5587 64.442 19.654 63.914 19.654ZM64.233 18.664C64.7243 18.664 65.1277 18.5063 65.443 18.191C65.7657 17.8757 65.927 17.4247 65.927 16.838V16.739C65.927 16.1597 65.7693 15.7123 65.454 15.397C65.1387 15.0817 64.7317 14.924 64.233 14.924C63.749 14.924 63.3457 15.0817 63.023 15.397C62.7077 15.7123 62.55 16.1597 62.55 16.739V16.838C62.55 17.4247 62.7077 17.8757 63.023 18.191C63.3457 18.5063 63.749 18.664 64.233 18.664ZM76.4926 21.7C75.4732 21.7 74.5859 21.502 73.8306 21.106C73.0826 20.7173 72.5032 20.16 72.0926 19.434C71.6819 18.708 71.4766 17.8353 71.4766 16.816V16.563C71.4766 15.551 71.6746 14.682 72.0706 13.956C72.4666 13.23 73.0276 12.6727 73.7536 12.284C74.4869 11.8953 75.3449 11.701 76.3276 11.701H76.5586C77.4826 11.701 78.2892 11.8917 78.9786 12.273C79.6679 12.647 80.2032 13.1787 80.5846 13.868C80.9659 14.55 81.1566 15.3567 81.1566 16.288V16.893C81.1566 17.7437 80.9916 18.3927 80.6616 18.84C80.3389 19.28 79.8659 19.5 79.2426 19.5H78.7366C78.4139 19.5 78.1682 19.434 77.9996 19.302C77.8309 19.1627 77.7466 18.9757 77.7466 18.741V18.675H77.5706C77.5119 18.829 77.4202 18.9793 77.2956 19.126C77.1782 19.2653 77.0206 19.379 76.8226 19.467C76.6319 19.555 76.3826 19.599 76.0746 19.599C75.6272 19.599 75.2312 19.478 74.8866 19.236C74.5492 18.994 74.2852 18.6713 74.0946 18.268C73.9112 17.8573 73.8196 17.3953 73.8196 16.882V16.695C73.8196 16.1817 73.9112 15.7233 74.0946 15.32C74.2779 14.9093 74.5309 14.5867 74.8536 14.352C75.1836 14.11 75.5649 13.989 75.9976 13.989C76.2982 13.989 76.5439 14.0293 76.7346 14.11C76.9326 14.1833 77.0902 14.2823 77.2076 14.407C77.3249 14.5317 77.4202 14.6637 77.4936 14.803H77.6696V14.088H78.7696V18.169C78.7696 18.279 78.7916 18.3633 78.8356 18.422C78.8869 18.4733 78.9676 18.499 79.0776 18.499H79.1656C79.4809 18.499 79.7046 18.3707 79.8366 18.114C79.9759 17.85 80.0456 17.4357 80.0456 16.871V16.31C80.0456 15.562 79.9099 14.9203 79.6386 14.385C79.3672 13.8497 78.9712 13.439 78.4506 13.153C77.9372 12.867 77.2992 12.724 76.5366 12.724H76.3606C75.5979 12.724 74.9306 12.8707 74.3586 13.164C73.7939 13.4573 73.3576 13.8937 73.0496 14.473C72.7416 15.045 72.5876 15.7563 72.5876 16.607V16.783C72.5876 17.6263 72.7489 18.3377 73.0716 18.917C73.3942 19.4963 73.8526 19.9327 74.4466 20.226C75.0406 20.5267 75.7446 20.677 76.5586 20.677H78.7806V21.7H76.4926ZM76.2946 18.609C76.7052 18.609 77.0352 18.455 77.2846 18.147C77.5412 17.8317 77.6696 17.399 77.6696 16.849V16.728C77.6696 16.178 77.5412 15.749 77.2846 15.441C77.0352 15.1257 76.7052 14.968 76.2946 14.968C75.8839 14.968 75.5539 15.1257 75.3046 15.441C75.0626 15.7563 74.9416 16.1853 74.9416 16.728V16.86C74.9416 17.4027 75.0626 17.8317 75.3046 18.147C75.5539 18.455 75.8839 18.609 76.2946 18.609Z" fill="black"/>
<rect x="90" y="4" width="103" height="24" rx="6" fill="black"/>
<path fill-rule="evenodd" clip-rule="evenodd" d="M105.642 12.3838L105.44 7L105.035 7.04063L105.642 12.3838ZM103.521 7.38672L104.714 11.9985L103.137 7.50862L103.521 7.38672ZM100.93 7.40625L102.891 11.0225L100.566 7.60941L100.93 7.40625ZM99.8579 9.27344L104.791 14.7791L99.5547 9.53755L99.8579 9.27344ZM107.826 13.9868L106.148 15.6933L107.503 13.7227L107.826 13.9868ZM103.802 19.6163L100.75 24.4922L101.093 24.6954L103.802 19.6163ZM100.891 20.9988L102.852 19.2109L101.174 21.2629L100.891 20.9988ZM101.822 18.6016L98.3047 20.6129L98.5271 20.9582L101.822 18.6016ZM107.884 18.0534L106.227 16.2656L108.147 17.7487L107.884 18.0534ZM108.531 18.375L112.918 22.682L113.201 22.3773L108.531 18.375ZM102.992 17.4025L105.196 16.3867L103.194 17.7682L102.992 17.4025ZM104.692 15.6355L98.5464 13.7461L98.4453 14.1321L104.692 15.6355ZM98.2022 11.5898L101.922 13.8246L98 11.9352L98.2022 11.5898ZM106.105 20.1445V24.9391L106.51 24.9188L106.105 20.1445ZM104.832 18.437L105.681 16.6289L105.216 18.5792L104.832 18.437ZM104.611 19.6569L103.843 21.2619L104.227 21.3838L104.611 19.6569ZM102.648 24.6325L103.861 21.8086L103.033 24.7747L102.648 24.6325ZM101.781 19.4335L98 22.3183L98.2628 22.6231L101.781 19.4335ZM100.082 15.8594L102.407 16.0219L100.102 16.2657L100.082 15.8594ZM109.363 16.2039L112.153 16.5899L112.173 16.1836L109.363 16.2039ZM111.524 24.0857L109.441 20.8555L111.847 23.8419L111.524 24.0857ZM106.309 16.8939L109.584 25L109.948 24.8375L106.309 16.8939ZM107.36 23.5796L106.754 19.8008L107.745 23.478L107.36 23.5796ZM105.298 19.9805L104.469 23.9218L104.873 24.003L105.298 19.9805ZM99.3949 24.35L102.326 20.7744L99.7184 24.5938L99.3949 24.35ZM109.141 17.8086L113.568 21.0998L113.791 20.7747L109.141 17.8086ZM105.642 15.0434L105.076 12.5039L104.691 12.6258L105.642 15.0434ZM106.551 13.2563L106.086 14.9628L106.147 13.1953L106.551 13.2563ZM106.551 11.9374L107.319 8.36173L106.915 8.30078L106.551 11.9374ZM111.058 7.48832L108.188 12.0594L110.694 7.28516L111.058 7.48832ZM108.898 12.8304L112.861 8.90942L112.558 8.625L108.898 12.8304ZM109.421 7.34534L107.258 12.4853L109.057 7.20312L109.421 7.34534ZM107.48 15.533L109.886 15.086L109.765 14.6797L107.48 15.533ZM111.382 18.2947L109.219 17.2383L111.523 17.9087L111.382 18.2947ZM112.414 18.457L113.546 19.1071L113.688 18.7211L112.414 18.457ZM113.767 10.6376L110.027 13.299L113.525 10.3125L113.767 10.6376ZM110.816 13.5432L113.627 12.3852L113.445 12.0195L110.816 13.5432Z" fill="white"/>
<path d="M123.08 19.654C122.413 19.654 121.848 19.5 121.386 19.192C120.931 18.884 120.656 18.3963 120.561 17.729L121.386 17.542C121.445 17.894 121.555 18.1727 121.716 18.378C121.877 18.576 122.075 18.719 122.31 18.807C122.552 18.8877 122.809 18.928 123.08 18.928C123.483 18.928 123.802 18.8473 124.037 18.686C124.272 18.5247 124.389 18.3083 124.389 18.037C124.389 17.7583 124.275 17.564 124.048 17.454C123.828 17.3367 123.524 17.2413 123.135 17.168L122.684 17.091C122.339 17.0323 122.024 16.9407 121.738 16.816C121.452 16.6913 121.225 16.5227 121.056 16.31C120.887 16.0973 120.803 15.8297 120.803 15.507C120.803 15.023 120.99 14.6453 121.364 14.374C121.738 14.1027 122.233 13.967 122.849 13.967C123.458 13.967 123.949 14.1063 124.323 14.385C124.704 14.6563 124.95 15.0413 125.06 15.54L124.246 15.749C124.18 15.3603 124.022 15.089 123.773 14.935C123.524 14.7737 123.216 14.693 122.849 14.693C122.482 14.693 122.193 14.7627 121.98 14.902C121.767 15.034 121.661 15.232 121.661 15.496C121.661 15.7527 121.76 15.9433 121.958 16.068C122.163 16.1853 122.435 16.2733 122.772 16.332L123.223 16.409C123.604 16.475 123.945 16.5667 124.246 16.684C124.554 16.794 124.796 16.9553 124.972 17.168C125.155 17.3807 125.247 17.6593 125.247 18.004C125.247 18.532 125.049 18.939 124.653 19.225C124.264 19.511 123.74 19.654 123.08 19.654ZM126.714 21.7V14.121H127.561V15.012H127.715C127.854 14.7407 128.078 14.4987 128.386 14.286C128.701 14.0733 129.137 13.967 129.695 13.967C130.157 13.967 130.578 14.0807 130.96 14.308C131.348 14.528 131.656 14.8433 131.884 15.254C132.118 15.6647 132.236 16.1597 132.236 16.739V16.882C132.236 17.454 132.122 17.949 131.895 18.367C131.667 18.785 131.359 19.104 130.971 19.324C130.589 19.544 130.164 19.654 129.695 19.654C129.321 19.654 129.002 19.6027 128.738 19.5C128.481 19.4047 128.272 19.28 128.111 19.126C127.949 18.972 127.825 18.8143 127.737 18.653H127.583V21.7H126.714ZM129.464 18.884C130.021 18.884 130.472 18.708 130.817 18.356C131.169 17.9967 131.345 17.498 131.345 16.86V16.761C131.345 16.123 131.169 15.628 130.817 15.276C130.472 14.9167 130.021 14.737 129.464 14.737C128.914 14.737 128.459 14.9167 128.1 15.276C127.748 15.628 127.572 16.123 127.572 16.761V16.86C127.572 17.498 127.748 17.9967 128.1 18.356C128.459 18.708 128.914 18.884 129.464 18.884ZM135.443 19.654C135.069 19.654 134.728 19.588 134.42 19.456C134.112 19.324 133.87 19.1333 133.694 18.884C133.518 18.6347 133.43 18.3303 133.43 17.971C133.43 17.6043 133.518 17.3037 133.694 17.069C133.87 16.827 134.112 16.6473 134.42 16.53C134.728 16.4053 135.073 16.343 135.454 16.343H137.269V15.947C137.269 15.5657 137.155 15.265 136.928 15.045C136.708 14.825 136.378 14.715 135.938 14.715C135.505 14.715 135.168 14.8213 134.926 15.034C134.684 15.2393 134.519 15.518 134.431 15.87L133.617 15.606C133.705 15.3053 133.844 15.034 134.035 14.792C134.226 14.5427 134.479 14.3447 134.794 14.198C135.117 14.044 135.502 13.967 135.949 13.967C136.638 13.967 137.174 14.1467 137.555 14.506C137.936 14.858 138.127 15.3567 138.127 16.002V18.433C138.127 18.653 138.23 18.763 138.435 18.763H138.93V19.5H138.171C137.929 19.5 137.735 19.434 137.588 19.302C137.441 19.1627 137.368 18.9793 137.368 18.752V18.697H137.236C137.155 18.8363 137.045 18.983 136.906 19.137C136.774 19.2837 136.591 19.4047 136.356 19.5C136.121 19.6027 135.817 19.654 135.443 19.654ZM135.542 18.906C136.055 18.906 136.47 18.7557 136.785 18.455C137.108 18.147 137.269 17.718 137.269 17.168V17.047H135.487C135.142 17.047 134.856 17.124 134.629 17.278C134.409 17.4247 134.299 17.6483 134.299 17.949C134.299 18.2497 134.413 18.4843 134.64 18.653C134.875 18.8217 135.175 18.906 135.542 18.906ZM142.445 19.654C141.924 19.654 141.455 19.544 141.037 19.324C140.626 19.0967 140.3 18.774 140.058 18.356C139.823 17.938 139.706 17.443 139.706 16.871V16.75C139.706 16.1707 139.823 15.6757 140.058 15.265C140.3 14.847 140.626 14.528 141.037 14.308C141.455 14.0807 141.924 13.967 142.445 13.967C142.958 13.967 143.394 14.0623 143.754 14.253C144.12 14.4437 144.406 14.6967 144.612 15.012C144.824 15.3273 144.96 15.6647 145.019 16.024L144.172 16.2C144.135 15.936 144.047 15.694 143.908 15.474C143.776 15.254 143.589 15.078 143.347 14.946C143.105 14.814 142.808 14.748 142.456 14.748C142.096 14.748 141.774 14.8287 141.488 14.99C141.209 15.1513 140.985 15.3823 140.817 15.683C140.655 15.9837 140.575 16.343 140.575 16.761V16.86C140.575 17.278 140.655 17.6373 140.817 17.938C140.985 18.2387 141.209 18.4697 141.488 18.631C141.774 18.7923 142.096 18.873 142.456 18.873C142.991 18.873 143.398 18.7337 143.677 18.455C143.963 18.1763 144.139 17.8317 144.205 17.421L145.063 17.608C144.982 17.96 144.835 18.2937 144.623 18.609C144.41 18.9243 144.12 19.1773 143.754 19.368C143.394 19.5587 142.958 19.654 142.445 19.654ZM149.008 19.654C148.465 19.654 147.989 19.5403 147.578 19.313C147.167 19.0783 146.848 18.752 146.621 18.334C146.394 17.916 146.28 17.432 146.28 16.882V16.75C146.28 16.1927 146.394 15.705 146.621 15.287C146.848 14.869 147.164 14.5463 147.567 14.319C147.97 14.0843 148.432 13.967 148.953 13.967C149.459 13.967 149.906 14.077 150.295 14.297C150.684 14.5097 150.988 14.8177 151.208 15.221C151.428 15.6243 151.538 16.0973 151.538 16.64V17.036H147.149C147.171 17.6153 147.358 18.07 147.71 18.4C148.062 18.7227 148.502 18.884 149.03 18.884C149.492 18.884 149.848 18.7777 150.097 18.565C150.346 18.3523 150.537 18.0993 150.669 17.806L151.417 18.169C151.307 18.3963 151.153 18.6237 150.955 18.851C150.764 19.0783 150.511 19.269 150.196 19.423C149.888 19.577 149.492 19.654 149.008 19.654ZM147.16 16.321H150.658C150.629 15.8223 150.456 15.4337 150.141 15.155C149.833 14.8763 149.437 14.737 148.953 14.737C148.462 14.737 148.058 14.8763 147.743 15.155C147.428 15.4337 147.233 15.8223 147.16 16.321ZM154.819 19.5C154.511 19.5 154.272 19.4157 154.104 19.247C153.942 19.0783 153.862 18.8473 153.862 18.554V14.88H152.245V14.121H153.862V12.207H154.731V14.121H156.491V14.88H154.731V18.422C154.731 18.642 154.837 18.752 155.05 18.752H156.249V19.5H154.819ZM160.169 19.654C159.626 19.654 159.15 19.5403 158.739 19.313C158.328 19.0783 158.009 18.752 157.782 18.334C157.555 17.916 157.441 17.432 157.441 16.882V16.75C157.441 16.1927 157.555 15.705 157.782 15.287C158.009 14.869 158.325 14.5463 158.728 14.319C159.131 14.0843 159.593 13.967 160.114 13.967C160.62 13.967 161.067 14.077 161.456 14.297C161.845 14.5097 162.149 14.8177 162.369 15.221C162.589 15.6243 162.699 16.0973 162.699 16.64V17.036H158.31C158.332 17.6153 158.519 18.07 158.871 18.4C159.223 18.7227 159.663 18.884 160.191 18.884C160.653 18.884 161.009 18.7777 161.258 18.565C161.507 18.3523 161.698 18.0993 161.83 17.806L162.578 18.169C162.468 18.3963 162.314 18.6237 162.116 18.851C161.925 19.0783 161.672 19.269 161.357 19.423C161.049 19.577 160.653 19.654 160.169 19.654ZM158.321 16.321H161.819C161.79 15.8223 161.617 15.4337 161.302 15.155C160.994 14.8763 160.598 14.737 160.114 14.737C159.623 14.737 159.219 14.8763 158.904 15.155C158.589 15.4337 158.394 15.8223 158.321 16.321ZM165.865 19.654C165.491 19.654 165.15 19.588 164.842 19.456C164.534 19.324 164.292 19.1333 164.116 18.884C163.94 18.6347 163.852 18.3303 163.852 17.971C163.852 17.6043 163.94 17.3037 164.116 17.069C164.292 16.827 164.534 16.6473 164.842 16.53C165.15 16.4053 165.494 16.343 165.876 16.343H167.691V15.947C167.691 15.5657 167.577 15.265 167.35 15.045C167.13 14.825 166.8 14.715 166.36 14.715C165.927 14.715 165.59 14.8213 165.348 15.034C165.106 15.2393 164.941 15.518 164.853 15.87L164.039 15.606C164.127 15.3053 164.266 15.034 164.457 14.792C164.647 14.5427 164.9 14.3447 165.216 14.198C165.538 14.044 165.923 13.967 166.371 13.967C167.06 13.967 167.595 14.1467 167.977 14.506C168.358 14.858 168.549 15.3567 168.549 16.002V18.433C168.549 18.653 168.651 18.763 168.857 18.763H169.352V19.5H168.593C168.351 19.5 168.156 19.434 168.01 19.302C167.863 19.1627 167.79 18.9793 167.79 18.752V18.697H167.658C167.577 18.8363 167.467 18.983 167.328 19.137C167.196 19.2837 167.012 19.4047 166.778 19.5C166.543 19.6027 166.239 19.654 165.865 19.654ZM165.964 18.906C166.477 18.906 166.891 18.7557 167.207 18.455C167.529 18.147 167.691 17.718 167.691 17.168V17.047H165.909C165.564 17.047 165.278 17.124 165.051 17.278C164.831 17.4247 164.721 17.6483 164.721 17.949C164.721 18.2497 164.834 18.4843 165.062 18.653C165.296 18.8217 165.597 18.906 165.964 18.906ZM170.542 19.5V14.121H171.389V14.792H171.543C171.646 14.6013 171.814 14.4253 172.049 14.264C172.284 14.1027 172.614 14.022 173.039 14.022C173.457 14.022 173.794 14.1137 174.051 14.297C174.315 14.4803 174.506 14.704 174.623 14.968H174.777C174.902 14.704 175.089 14.4803 175.338 14.297C175.595 14.1137 175.95 14.022 176.405 14.022C176.764 14.022 177.08 14.0953 177.351 14.242C177.622 14.3887 177.835 14.6013 177.989 14.88C178.15 15.1513 178.231 15.4777 178.231 15.859V19.5H177.362V15.936C177.362 15.5767 177.256 15.2943 177.043 15.089C176.838 14.8763 176.548 14.77 176.174 14.77C175.778 14.77 175.452 14.8983 175.195 15.155C174.946 15.4117 174.821 15.782 174.821 16.266V19.5H173.952V15.936C173.952 15.5767 173.846 15.2943 173.633 15.089C173.428 14.8763 173.138 14.77 172.764 14.77C172.368 14.77 172.042 14.8983 171.785 15.155C171.536 15.4117 171.411 15.782 171.411 16.266V19.5H170.542ZM182.173 19.654C181.505 19.654 180.941 19.5 180.479 19.192C180.024 18.884 179.749 18.3963 179.654 17.729L180.479 17.542C180.537 17.894 180.647 18.1727 180.809 18.378C180.97 18.576 181.168 18.719 181.403 18.807C181.645 18.8877 181.901 18.928 182.173 18.928C182.576 18.928 182.895 18.8473 183.13 18.686C183.364 18.5247 183.482 18.3083 183.482 18.037C183.482 17.7583 183.368 17.564 183.141 17.454C182.921 17.3367 182.616 17.2413 182.228 17.168L181.777 17.091C181.432 17.0323 181.117 16.9407 180.831 16.816C180.545 16.6913 180.317 16.5227 180.149 16.31C179.98 16.0973 179.896 15.8297 179.896 15.507C179.896 15.023 180.083 14.6453 180.457 14.374C180.831 14.1027 181.326 13.967 181.942 13.967C182.55 13.967 183.042 14.1063 183.416 14.385C183.797 14.6563 184.043 15.0413 184.153 15.54L183.339 15.749C183.273 15.3603 183.115 15.089 182.866 14.935C182.616 14.7737 182.308 14.693 181.942 14.693C181.575 14.693 181.285 14.7627 181.073 14.902C180.86 15.034 180.754 15.232 180.754 15.496C180.754 15.7527 180.853 15.9433 181.051 16.068C181.256 16.1853 181.527 16.2733 181.865 16.332L182.316 16.409C182.697 16.475 183.038 16.5667 183.339 16.684C183.647 16.794 183.889 16.9553 184.065 17.168C184.248 17.3807 184.34 17.6593 184.34 18.004C184.34 18.532 184.142 18.939 183.746 19.225C183.357 19.511 182.833 19.654 182.173 19.654Z" fill="white"/>
</svg>
